<svg width="156" height="156" viewBox="0 0 156 156" fill="none" xmlns="http://www.w3.org/2000/svg">
<path fill-rule="evenodd" clip-rule="evenodd" d="M90.15 0.369873C132.61 0.369873 161.19 35.1199 153.96 77.9599C146.74 120.81 106.44 155.56 63.98 155.56C34.27 155.56 11.36 138.54 2.75 113.65C12.6 113.62 22.44 113.7 32.28 113.93C52.95 114.4 69.73 98.3699 69.73 79.1699C69.73 62.2399 56.68 48.1299 39.41 45.0399C36.83 44.5799 34.83 44.4099 32.29 44.4099H13.38C30.17 18.3599 59.6 0.369873 90.15 0.369873ZM40.95 127.12C52.62 127.07 64.3 127.4 75.94 127.46L85.07 127.51C114.5 127.67 138.37 104.98 138.37 77.1999C138.37 53.8699 121.54 34.2499 98.72 28.5499C94.8 27.5699 90.8 26.8799 86.91 26.8799H40.95V27.8299C65.44 32.3699 83.93 52.7499 83.93 77.1999C83.93 101.65 65.45 122.03 40.95 126.57V127.12ZM2.55 113.02C19.13 109.44 31.49 95.6499 31.49 79.1699C31.49 65.6599 23.19 53.9599 11.06 48.1999C9.11 51.5599 7.37 55.0299 5.86 58.5999C12.93 63.0499 17.59 70.6399 17.59 79.2599C17.59 90.0899 10.24 99.2899 0 102.68C0.59 106.25 1.45 109.7 2.55 113.01V113.02Z" fill="#F48120"/>
</svg>
