<svg xmlns="http://www.w3.org/2000/svg" width="159" height="102" viewBox="0 0 159 102" fill="none">
  <g clip-path="url(#clip0_1_578)">
    <path d="M70.7179 53.095C70.1471 55.9178 69.5203 58.7239 68.8543 61.5243C68.8431 61.5411 68.8263 61.5523 68.8151 61.569C67.6846 63.4081 66.028 64.7831 63.8901 65.2527C60.6777 65.9514 60.493 63.7099 60.7449 61.3175C60.952 59.3499 61.4444 57.3712 62.0881 55.4762C62.2615 55.0067 62.4182 54.5595 62.5638 54.1459C63.0059 52.8714 59.5416 51.4013 59.0827 52.6143C58.8085 53.341 58.4783 54.2241 58.1593 55.18C57.4261 57.1252 56.5978 59.0369 55.5065 60.8088C54.46 62.5025 51.8688 66.3538 49.3783 65.3141C48.7683 65.0626 48.2982 64.5204 47.9288 63.8496C50.6431 61.3063 52.8146 58.0363 54.0794 55.057C55.3442 52.0833 55.9766 48.8133 56.3628 45.616C56.6762 42.9888 57.359 38.9866 55.5401 36.7507C53.9619 34.8166 51.1076 34.3471 49.3671 36.242C46.692 39.171 45.4943 43.4024 44.5765 47.1531C43.4684 51.6808 42.2259 57.8351 44.1679 62.4019C43.0878 63.3522 41.9461 64.1906 40.754 64.8558C38.3643 66.1917 36.1257 66.2365 34.5643 64.4422C37.0883 61.5914 38.7281 57.6059 39.9817 54.2297C41.1738 51.0324 41.879 47.6618 42.142 44.2633C42.4162 40.7641 42.7072 36.0799 41.3809 32.7708C40.7205 31.1218 38.6945 29.8977 36.8924 30.3952C35.0064 30.915 33.7024 33.4304 32.807 34.9731C29.0629 41.4349 28.201 49.3387 28.8054 56.6948C28.9901 58.953 29.6281 61.3119 30.7362 63.313C29.3763 64.6993 27.7645 65.6775 25.8225 65.8619C23.7014 66.0632 26.5332 68.2879 27.7421 68.1705C29.7289 67.9804 31.4078 67.2147 32.8461 66.0799C34.5083 67.6283 36.6798 68.5171 39.3885 68.232C41.795 67.9749 44.0896 66.9016 46.1491 65.3589C46.7088 65.9178 47.3636 66.4209 48.1247 66.8569C52.1094 69.1263 55.2379 67.3376 57.6164 64.2856C57.7843 64.6098 57.9802 64.9117 58.2264 65.1856C59.8382 66.9352 61.9313 67.7177 64.0468 67.7233C60.1796 71.0101 57.5437 75.4986 55.9542 80.4064C54.6279 84.5204 51.5554 94.3304 58.0809 95.644C60.5714 96.147 62.1888 94.2521 63.1962 92.2007C65.0766 88.3606 66.2966 84.0229 67.6118 79.9648C70.3038 71.6529 72.4808 63.1901 74.2102 54.6322C74.49 53.2571 70.9586 51.9491 70.7291 53.1006L70.7179 53.095ZM35.5101 37.8686C36.1145 36.7283 36.7525 35.5768 37.508 34.5316C37.5696 34.4477 37.8103 34.185 38.0845 33.8887C38.1964 34.6042 38.4315 35.4874 38.4707 35.8731C39.0415 41.8429 38.4259 47.8519 36.1985 53.4472C35.3478 55.588 34.2677 58.2767 32.8014 60.6076C32.348 58.7183 32.2641 56.7395 32.2529 54.7999C32.2193 49.0089 32.7566 43.0727 35.5101 37.8686ZM47.6378 50.4064C48.1918 47.9301 48.8075 45.4371 49.7589 43.0782C50.1954 41.9994 50.6991 40.943 51.3035 39.948C51.5554 39.5288 51.9191 38.8524 52.2829 38.4835C53.2231 37.5388 52.9433 37.9804 53.0217 39.0872C53.3407 43.749 52.462 48.8971 50.7103 53.2236C49.8092 55.4483 48.4493 57.6898 46.7815 59.6909C46.7311 59.2437 46.7032 58.8301 46.6864 58.4947C46.5632 55.7725 47.0446 53.0559 47.6378 50.412V50.4064ZM59.5136 91.0269C58.8924 92.2119 58.0809 93.6149 57.6612 91.6753C57.3534 90.2387 57.9074 88.2432 58.1761 86.8346C58.6742 84.2242 59.4017 81.6529 60.4203 79.199C61.8642 75.7222 63.9013 72.6311 66.5933 70.166C66.3806 70.9318 66.1735 71.6976 65.9497 72.4634C64.1588 78.5786 62.4798 85.3645 59.508 91.0269H59.5136Z" fill="white"/>
    <path d="M14.1692 33.3296C13.9229 33.3296 13.755 33.3743 13.6319 33.4526C6.09338 36.0294 1.12925 42.916 0.138666 50.7248C-0.851921 58.5336 3.48539 68.2374 12.4902 68.3101C21.4671 68.3827 25.6141 57.8741 26.3808 50.395C27.1699 42.7203 22.8382 33.5196 14.1692 33.3296ZM21.7357 54.196C20.8962 56.9853 19.7321 59.7857 17.8853 62.0663C15.7138 64.755 11.6619 67.3039 8.27603 65.1798C2.46683 61.5409 2.90895 52.4353 5.04123 46.8847C7.0336 41.6974 11.0015 37.5163 16.2847 35.6996C20.012 35.9232 22.0715 41.0322 22.62 44.1066C23.2244 47.4604 22.7095 50.9596 21.7357 54.1904V54.196Z" fill="white"/>
    <path d="M155.931 53.095C155.36 55.9178 154.733 58.7239 154.067 61.5243C154.056 61.5411 154.039 61.5523 154.028 61.569C152.897 63.4081 151.241 64.7831 149.103 65.2527C145.891 65.9514 145.706 63.7099 145.958 61.3175C146.165 59.3499 146.657 57.3712 147.301 55.4762C147.474 55.0067 147.631 54.5595 147.777 54.1459C148.219 52.8714 144.755 51.4013 144.296 52.6143C144.021 53.341 143.691 54.2241 143.372 55.18C142.639 57.1252 141.811 59.0369 140.719 60.8088C139.673 62.5025 137.082 66.3538 134.591 65.3141C133.981 65.0626 133.511 64.5204 133.142 63.8496C135.856 61.3063 138.027 58.0363 139.292 55.057C140.557 52.0833 141.19 48.8133 141.576 45.616C141.889 42.9888 142.572 38.9866 140.753 36.7507C139.175 34.8166 136.321 34.3471 134.58 36.242C131.905 39.171 130.707 43.4024 129.789 47.1531C128.681 51.6808 127.439 57.8351 129.381 62.4019C128.301 63.3522 127.159 64.1906 125.967 64.8558C123.577 66.1917 121.339 66.2365 119.777 64.4422C122.301 61.5914 123.941 57.6059 125.195 54.2297C126.387 51.0324 127.092 47.6618 127.355 44.2633C127.629 40.7641 127.92 36.0799 126.594 32.7708C125.933 31.1218 123.907 29.8977 122.105 30.3952C120.219 30.915 118.915 33.4304 118.02 34.9731C114.276 41.4349 113.414 49.3387 114.018 56.6948C114.203 58.953 114.841 61.3119 115.949 63.313C114.589 64.6993 112.977 65.6775 111.035 65.8619C108.914 66.0632 111.746 68.2879 112.955 68.1705C114.942 67.9804 116.621 67.2147 118.059 66.0799C119.721 67.6283 121.893 68.5171 124.601 68.232C127.008 67.9749 129.302 66.9016 131.362 65.3589C131.922 65.9178 132.576 66.4209 133.338 66.8569C137.322 69.1263 140.451 67.3376 142.829 64.2856C142.997 64.6098 143.193 64.9117 143.439 65.1856C145.051 66.9352 147.144 67.7177 149.26 67.7233C145.393 71.0101 142.757 75.4986 141.167 80.4064C139.841 84.5204 136.768 94.3304 143.294 95.644C145.784 96.147 147.402 94.2521 148.409 92.2007C150.289 88.3606 151.51 84.0229 152.825 79.9648C155.517 71.6529 157.694 63.1901 159.423 54.6322C159.703 53.2571 156.171 51.9491 155.942 53.1006L155.931 53.095ZM120.723 37.8686C121.327 36.7283 121.965 35.5768 122.721 34.5316C122.783 34.4477 123.023 34.185 123.297 33.8887C123.409 34.6042 123.644 35.4874 123.684 35.8731C124.254 41.8429 123.639 47.8519 121.411 53.4472C120.561 55.588 119.481 58.2767 118.014 60.6076C117.561 58.7183 117.477 56.7395 117.466 54.7999C117.432 49.0089 117.969 43.0727 120.723 37.8686ZM132.851 50.4064C133.405 47.9301 134.02 45.4371 134.972 43.0782C135.408 41.9994 135.912 40.943 136.516 39.948C136.768 39.5288 137.132 38.8524 137.496 38.4835C138.436 37.5388 138.156 37.9804 138.235 39.0872C138.554 43.749 137.675 48.8971 135.923 53.2236C135.022 55.4483 133.662 57.6898 131.994 59.6909C131.944 59.2437 131.916 58.8301 131.899 58.4947C131.776 55.7725 132.257 53.0559 132.851 50.412V50.4064ZM144.727 91.0269C144.105 92.2119 143.294 93.6149 142.874 91.6753C142.566 90.2387 143.12 88.2432 143.389 86.8346C143.887 84.2242 144.615 81.6529 145.633 79.199C147.077 75.7222 149.114 72.6311 151.806 70.166C151.593 70.9318 151.386 71.6976 151.163 72.4634C149.372 78.5786 147.693 85.3645 144.721 91.0269H144.727Z" fill="white"/>
    <path d="M99.384 33.3298C99.1378 33.3298 98.9699 33.3745 98.8468 33.4528C91.3138 36.0241 86.3441 42.9106 85.3535 50.7194C84.3629 58.5283 88.7002 68.232 97.7051 68.3047C106.682 68.3774 110.829 57.8687 111.596 50.3896C112.385 42.7149 108.053 33.5143 99.384 33.3242V33.3298ZM106.951 54.1962C106.111 56.9855 104.947 59.786 103.1 62.0666C100.929 64.7552 96.8768 67.3041 93.4909 65.18C87.6817 61.5411 88.1238 52.4355 90.2561 46.8849C92.2484 41.6976 96.2164 37.5165 101.5 35.6998C105.227 35.9234 107.286 41.0324 107.835 44.1068C108.439 47.4606 107.924 50.9598 106.951 54.1906V54.1962Z" fill="white"/>
  </g>
  <defs>
    <clipPath id="clip0_1_578">
      <rect width="159" height="102" fill="white"/>
    </clipPath>
  </defs>
</svg>