<svg id="Layer_1" data-name="Layer 1" xmlns="http://www.w3.org/2000/svg" viewBox="0 0 500 500">
  <path d="m317.5,53h-20v20h20v-20Zm-28.8,0h-20v20h20v-20Zm-28.8,0h-20v20h20v-20Zm-28.8,0h-20v20h20v-20Zm-28.8,0h-20v20h20v-20Zm-28.8,0h-20v20h20v-20Zm-28.8,28.71h-20v20h20v-20Zm-28.8,28.72h-20v20h20v-20Zm-28.8,28.71h-20v20h20v-20Zm0,28.71h-20v20h20v-20Zm0,28.71h-20v20h20v-20Zm0,28.71h-20v20h20v-20Zm-28.8,28.71h-20v20h20v-20Zm0,28.71h-20v20h20v-20Zm0,28.71h-20v20h20v-20Zm28.8,28.71h-20v20h20v-20Zm28.8,28.71h-20v20h20v-20Zm28.8,28.71h-20v20h20v-20Zm28.8,28.71h-20v20h20v-20Zm28.8,0h-20v20h20v-20Zm28.8-28.71h-20v20h20v-20Zm28.8,0h-20v20h20v-20Zm0,28.71h-20v20h20v-20Zm28.8,0h-20v20h20v-20Zm28.8-28.71h-20v20h20v-20Zm0-28.71h-20v20h20v-20Zm28.8-28.71h-20v20h20v-20Zm28.8-57.43h-20v20h20v-20Zm0,28.71h-20v20h20v-20Zm0-57.43h-20v20h20v-20Zm28.8-28.71h-20v20h20v-20Zm28.8,0h-20v20h20v-20Zm28.8-28.71h-20v20h20v-20Zm-28.8-28.71h-20v20h20v-20Zm-28.8,0h-20v20h20v-20Zm-28.8,0h-20v20h20v-20Zm86.4-28.71h-20v20h20v-20Zm0,28.71h-20v20h20v-20Zm-28.8-57.43h-20v20h20v-20Z" style="stroke-width:0; fill:#ffffff;"/>
  <path d="m432.7,110.43h-20v20h20v-20Zm-28.8,0h-20v20h20v-20Zm-57.6-28.72h-20v20h20v-20Zm-28.8,28.72h-20v20h20v-20Zm-86.4,28.71h-20v20h20v-20Zm0,114.86h-20v20h20v-20Zm0,28.71h-20v20h20v-20Zm-28.8,28.71h-20v20h20v-20Zm-28.8-28.71h-20v20h20v-20Zm0-28.71h-20v20h20v-20Zm201.6-143.57h-20v20h20v-20Z" style="stroke-width:0; fill:#ffffff;"/>
</svg>
